<svg width="176" height="16" viewBox="0 0 176 16" fill="none" xmlns="http://www.w3.org/2000/svg">
<mask id="mask0_34_58" style="mask-type:luminance" maskUnits="userSpaceOnUse" x="0" y="0" width="176" height="16">
<path d="M175.273 0H0V16H175.273V0Z" fill="white"/>
</mask>
<g mask="url(#mask0_34_58)">
<path d="M7.34332 0.37793H2.97929V2.93625H6.00054C10.994 2.93625 13.0501 4.21541 13.0501 7.94805C13.0501 11.6807 11.0779 13.0647 6.00054 13.0647H3.06131C3.01553 13.0647 2.97929 13.0285 2.97929 12.9827V6.16561H0V15.541C0 15.5868 0.0362398 15.623 0.0820163 15.623H7.46921C12.5046 15.623 16.0294 13.1066 16.0294 7.90611C16.0294 2.41201 12.1689 0.37793 7.34332 0.37793Z" fill="#E6BEBE"/>
<path d="M27.096 0.37793H30.3919C30.4243 0.37793 30.4529 0.395087 30.4663 0.423682L37.7924 15.5029C37.8192 15.5582 37.7791 15.6211 37.7181 15.6211H34.7559C34.7235 15.6211 34.6949 15.602 34.6816 15.5735L33.1309 12.1687C33.1175 12.1401 33.0889 12.121 33.0565 12.121H24.3723C24.3399 12.121 24.3113 12.1401 24.2979 12.1687L22.7262 15.5754C22.7129 15.604 22.6843 15.623 22.6519 15.623H19.6687C19.6077 15.623 19.5677 15.5582 19.5944 15.5029L27.0216 0.423682C27.035 0.395087 27.0636 0.37793 27.096 0.37793ZM31.8777 9.44453L28.8183 2.92863C28.7878 2.86572 28.6982 2.86572 28.6677 2.92863L25.6083 9.44453C25.5835 9.49982 25.6216 9.56273 25.6826 9.56273H31.7995C31.8606 9.56273 31.9006 9.49982 31.8739 9.44453H31.8777Z" fill="#E6BEBE"/>
<path d="M44.9829 2.93625H38.3301C38.2843 2.93625 38.248 2.90003 38.248 2.85428V0.459903C38.248 0.41415 38.2843 0.37793 38.3301 0.37793H54.781C54.8268 0.37793 54.863 0.41415 54.863 0.459903V2.85428C54.863 2.90003 54.8268 2.93625 54.781 2.93625H48.1282C48.0824 2.93625 48.0461 2.97247 48.0461 3.01823V15.541C48.0461 15.5868 48.0099 15.623 47.9641 15.623H45.1508C45.105 15.623 45.0688 15.5868 45.0688 15.541V3.01823C45.0688 2.97247 45.0325 2.93625 44.9867 2.93625H44.9829Z" fill="#E6BEBE"/>
<path d="M62.8265 0.37793H66.1224C66.1548 0.37793 66.1834 0.395087 66.1968 0.423682L73.5229 15.5029C73.5496 15.5582 73.5096 15.6211 73.4485 15.6211H70.4864C70.454 15.6211 70.4254 15.602 70.412 15.5735L68.8613 12.1687C68.848 12.1401 68.8194 12.121 68.787 12.121H60.1028C60.0703 12.121 60.0417 12.1401 60.0284 12.1687L58.4567 15.5754C58.4434 15.604 58.4147 15.623 58.3823 15.623H55.3992C55.3382 15.623 55.2981 15.5582 55.3248 15.5029L62.7521 0.423682C62.7654 0.395087 62.794 0.37793 62.8265 0.37793ZM67.6082 9.44453L64.5488 2.92863C64.5183 2.86572 64.4286 2.86572 64.3981 2.92863L61.3387 9.44453C61.3139 9.49982 61.3521 9.56273 61.4131 9.56273H67.53C67.591 9.56273 67.6311 9.49982 67.6044 9.44453H67.6082Z" fill="#E6BEBE"/>
<path d="M78.0703 0.459903C78.0703 0.41415 78.1065 0.37793 78.1523 0.37793H87.2599C90.8477 0.37793 93.2395 1.38448 93.2395 4.27832C93.2395 6.11033 92.3888 6.84618 91.6011 7.3628C91.5477 7.39902 91.5534 7.47718 91.6106 7.50577C92.6501 8.01477 93.825 9.28821 93.825 11.1965C93.825 14.0693 91.5381 15.6211 87.8245 15.6211H78.1504C78.1046 15.6211 78.0684 15.5849 78.0684 15.5391V0.459903H78.0703ZM87.4487 6.39628C89.4 6.39628 90.2602 5.91397 90.2602 4.63481C90.2602 3.35565 89.4 2.85237 87.4487 2.85237H81.1316C81.0858 2.85237 81.0496 2.88859 81.0496 2.93435V6.3124C81.0496 6.35815 81.0858 6.39437 81.1316 6.39437H87.4487V6.39628ZM87.5327 13.1486C89.421 13.1486 90.8477 12.7711 90.8477 10.9677C90.8477 9.374 89.5468 8.87072 87.5327 8.87072H81.1316C81.0858 8.87072 81.0496 8.90694 81.0496 8.95269V13.0647C81.0496 13.1104 81.0858 13.1467 81.1316 13.1467H87.5327V13.1486Z" fill="#E6BEBE"/>
<path d="M105.166 0.37793H108.462C108.495 0.37793 108.523 0.395087 108.537 0.423682L115.863 15.5029C115.889 15.5582 115.849 15.6211 115.788 15.6211H112.826C112.794 15.6211 112.765 15.602 112.752 15.5735L111.201 12.1687C111.188 12.1401 111.159 12.121 111.127 12.121H102.443C102.41 12.121 102.382 12.1401 102.368 12.1687L100.797 15.5754C100.783 15.604 100.755 15.623 100.722 15.623H97.7391C97.678 15.623 97.638 15.5582 97.6647 15.5029L105.092 0.423682C105.105 0.395087 105.134 0.37793 105.166 0.37793ZM109.948 9.44453L106.889 2.92863C106.858 2.86572 106.768 2.86572 106.738 2.92863L103.679 9.44453C103.654 9.49982 103.692 9.56273 103.753 9.56273H109.87C109.931 9.56273 109.971 9.49982 109.944 9.44453H109.948Z" fill="#E6BEBE"/>
<path d="M132.358 4.98701C132.317 5.00036 132.273 4.97939 132.255 4.93745C131.754 3.60682 130.497 2.47444 126.932 2.47444C124.918 2.47444 122.883 2.97772 122.883 4.3827C122.883 5.03277 123.26 5.72477 126.303 6.10223L129.911 6.64744C133.331 7.17169 135.345 8.49279 135.345 11.0511C135.345 14.6579 131.905 16 127.834 16C121.431 16 119.766 12.9098 119.362 11.6955C119.346 11.6516 119.373 11.6059 119.417 11.5925L122.145 10.7366C122.183 10.7251 122.225 10.7423 122.242 10.7785C122.799 11.8861 123.964 13.4417 127.918 13.4417C130.352 13.4417 132.366 12.6448 132.366 11.3237C132.366 10.3381 131.233 9.68807 129.051 9.41547L125.4 8.91219C121.876 8.42988 119.903 6.89908 119.903 4.57143C119.903 0 125.841 0 127.016 0C133.425 0 134.659 2.89575 135.065 4.00906C135.08 4.0529 135.057 4.10056 135.014 4.11581L132.358 4.98701Z" fill="#E6BEBE"/>
<path d="M140.486 0.37793H154C154.046 0.37793 154.082 0.41415 154.082 0.459903V2.85428C154.082 2.90003 154.046 2.93625 154 2.93625H143.466C143.42 2.93625 143.384 2.97247 143.384 3.01823V6.39628C143.384 6.44203 143.42 6.47825 143.466 6.47825H152.51C152.556 6.47825 152.592 6.51447 152.592 6.56022V8.95269C152.592 8.99845 152.556 9.03467 152.51 9.03467H143.466C143.42 9.03467 143.384 9.07089 143.384 9.11664V12.977C143.384 13.0228 143.42 13.059 143.466 13.059H154.252C154.297 13.059 154.334 13.0952 154.334 13.1409V15.5334C154.334 15.5792 154.297 15.6154 154.252 15.6154H140.486C140.441 15.6154 140.404 15.5792 140.404 15.5334V0.459903C140.404 0.41415 140.441 0.37793 140.486 0.37793Z" fill="#E6BEBE"/>
<path d="M166.587 0.37793H162.223V2.93625H165.245C170.238 2.93625 172.294 4.21541 172.294 7.94805C172.294 11.6807 170.322 13.0647 165.245 13.0647H162.305C162.26 13.0647 162.223 13.0285 162.223 12.9827V6.16561H159.244V15.541C159.244 15.5868 159.28 15.623 159.326 15.623H166.713C171.749 15.623 175.274 13.1066 175.274 7.90611C175.274 2.41201 171.413 0.37793 166.587 0.37793Z" fill="#E6BEBE"/>
</g>
</svg>
