<svg width="55" height="21" viewBox="0 0 55 21" fill="none" xmlns="http://www.w3.org/2000/svg">
<mask id="mask0_34_43" style="mask-type:luminance" maskUnits="userSpaceOnUse" x="0" y="0" width="55" height="21">
<path d="M55 0.5H0V20.5H55V0.5Z" fill="white"/>
</mask>
<g mask="url(#mask0_34_43)">
<path d="M12.2223 0.550171L10.9385 5.41233H4.13379L5.46532 0.550171H12.2223Z" fill="#E6BEBE"/>
<path d="M10.4356 7.31702L6.95574 20.5H0L3.61102 7.31702H10.4356Z" fill="#E6BEBE"/>
<path d="M22.0923 5.41233H14.7808L13.812 0.550171H20.9665L22.0923 5.41233Z" fill="#E6BEBE"/>
<path d="M35.8669 7.31702L25.4432 19.8784L24.9325 20.5H17.7869L17.6776 19.9496L15.1606 7.31702H22.5337L23.5801 11.8323L26.6644 7.31702H35.8669Z" fill="#E6BEBE"/>
<path d="M41.2871 0.60022L37.531 5.41225H28.248L31.7478 0.60022H41.2871Z" fill="#E6BEBE"/>
<path d="M51.8204 5.41228H39.5981L43.7716 0.5H50.8267L51.8204 5.41228Z" fill="#E6BEBE"/>
<path d="M54.9998 20.4498H47.8453L45.858 12.3295H34.0332L38.4054 7.31702H52.3169L53.3105 12.3295L54.9998 20.4498Z" fill="#E6BEBE"/>
</g>
</svg>
