<svg width="1672" height="274" viewBox="0 0 1672 274" fill="none" xmlns="http://www.w3.org/2000/svg">
<g clip-path="url(#clip0_35_94)">
<path d="M1191.07 51.6758C1198.64 58.6132 1203.32 67.9003 1205 78C1205.08 80.67 1205.03 83.3281 1205 86C1171.29 88.3878 1171.29 88.3878 1158 88C1157.64 87.0042 1157.64 87.0042 1157.27 85.9883C1154.89 79.7416 1153.02 74.7976 1147.06 71.25C1139.22 68.0492 1129.88 67.6905 1122 71C1118.85 73.8261 1118.09 75.3579 1117.5 79.5625C1117.74 82.9479 1117.74 82.9479 1119.44 85.1875C1125.06 89.1621 1130.62 91.0319 1137.38 92.25C1144.96 93.649 1152.29 95.6945 1159.69 97.875C1160.82 98.2027 1161.94 98.5305 1163.1 98.8682C1180.14 103.957 1197.55 110.568 1206.63 126.945C1212.37 139.248 1213.29 153.662 1208.94 166.625C1202.8 181.303 1192.38 191.846 1177.96 198.375C1165 203.667 1152.32 205.566 1138.38 205.437C1137.68 205.435 1136.99 205.432 1136.27 205.429C1116.84 205.315 1095.69 203.085 1081 189C1070.22 177.398 1063.46 162.982 1064 147C1090.96 144.803 1090.96 144.803 1103.69 144.812C1104.52 144.812 1105.36 144.811 1106.22 144.811C1111.86 144.863 1111.86 144.863 1113 146C1113.25 147.497 1113.47 148.998 1113.69 150.5C1114.98 157.082 1117.75 162.383 1123.03 166.637C1130.77 171.673 1139.41 172.333 1148.45 170.504C1153.55 168.781 1157.57 165.866 1160 161C1160.58 155.875 1161.01 151.495 1158.06 147.125C1150.59 141.937 1143.62 138.52 1134.57 137.176C1114.02 133.783 1089.44 126.071 1076.35 108.828C1074.12 105.391 1072.34 101.888 1071 98C1068.2 100.802 1067.03 104.22 1065.5 107.812C1065.19 108.525 1064.88 109.237 1064.57 109.971C1062.99 113.627 1061.46 117.294 1060 121C1059.36 120.783 1058.72 120.567 1058.06 120.344C1048.65 117.304 1048.65 117.304 1039.31 119.625C1033.13 123.62 1031.39 129.304 1029.61 136.121C1027.99 143.747 1027.79 151.151 1027.68 158.934C1027.66 160.167 1027.64 161.4 1027.62 162.67C1027.56 166.593 1027.5 170.515 1027.44 174.437C1027.39 177.104 1027.35 179.77 1027.31 182.436C1027.2 188.957 1027.1 195.478 1027 202C1011.82 202 996.64 202 981 202C981 163.06 981 124.12 981 84C995.19 84 1009.38 84 1024 84C1024.5 90.93 1024.5 90.93 1025 98C1025.99 96.6387 1026.98 95.2775 1028 93.875C1032.07 88.626 1036.6 84.1323 1043 82C1052.77 81.3162 1060.98 81.72 1070 86C1069.94 85.3452 1069.88 84.6903 1069.82 84.0156C1069.32 73.7244 1072.77 64.8264 1079.29 56.8672C1104.42 29.3874 1162.42 28.4423 1191.07 51.6758Z" fill="#E6BEBE"/>
<path d="M74 40C90.7475 39.9588 107.495 39.9175 124.75 39.875C130.018 39.8568 135.286 39.8386 140.714 39.8198C147.198 39.8108 147.198 39.8108 150.243 39.8091C152.348 39.8061 154.454 39.7991 156.559 39.7889C193.013 39.6209 193.013 39.6209 207.32 53.1563C215.404 62.0297 217.86 72.1328 217.41 83.9219C216.675 93.7051 212.417 102.573 205 109C202.421 110.852 199.767 112.448 197 114C196.01 114.66 195.02 115.32 194 116C194.534 116.135 195.067 116.271 195.617 116.41C205.984 119.405 214.488 125.725 220.18 134.902C226.087 145.789 226.219 157.299 222.969 169.051C219.079 180.892 212.141 190.172 201 196C200.086 196.492 200.086 196.492 199.154 196.994C177.339 207.18 143.893 202.424 120.875 202.25C105.406 202.168 89.9375 202.085 74 202C74 148.54 74 95.08 74 40Z" fill="#E6BEBE"/>
<path d="M1326.54 87.543C1340.29 97.6041 1347.41 111.801 1350.59 128.242C1353.33 146.798 1351.73 168.464 1341.37 184.531C1333.45 195.187 1323.03 201.979 1310 205C1299.89 206.072 1290.19 205.639 1281 201C1280.17 200.58 1279.33 200.16 1278.48 199.727C1274.74 197.733 1271.37 195.555 1268 193C1268 193.662 1268 194.324 1268.01 195.005C1268.03 201.867 1268.04 208.728 1268.05 215.589C1268.06 218.153 1268.07 220.717 1268.08 223.281C1268.09 226.957 1268.09 230.633 1268.1 234.309C1268.1 235.463 1268.11 236.617 1268.11 237.806C1268.11 238.867 1268.11 239.928 1268.11 241.021C1268.12 241.961 1268.12 242.9 1268.12 243.868C1268 246 1268 246 1267 247C1251.82 247 1236.64 247 1221 247C1221 193.21 1221 139.42 1221 84C1235.19 84 1249.38 84 1264 84C1264.5 91.425 1264.5 91.425 1265 99C1266.4 97.4738 1267.8 95.9475 1269.25 94.375C1283.74 79.8218 1308.74 76.7434 1326.54 87.543Z" fill="#E6BEBE"/>
<path d="M375 40C390.18 40 405.36 40 421 40C421.33 58.81 421.66 77.62 422 97C424.97 94.36 427.94 91.72 431 89C444.373 81.4979 458.466 79.8903 473.566 82.6523C483.564 85.9659 491.167 92.7064 496 102C499.09 109.441 500.15 116.42 500.114 124.462C500.114 125.302 500.114 126.141 500.114 127.006C500.113 129.771 500.106 132.536 500.098 135.301C500.096 137.222 500.094 139.143 500.093 141.064C500.09 146.112 500.08 151.161 500.069 156.21C500.057 162.271 500.052 168.333 500.046 174.394C500.037 183.596 500.017 192.798 500 202C484.82 202 469.64 202 454 202C453.974 196.895 453.948 191.791 453.922 186.531C453.897 183.286 453.87 180.042 453.84 176.797C453.792 171.653 453.748 166.509 453.729 161.365C453.714 157.215 453.679 153.066 453.632 148.916C453.617 147.337 453.609 145.759 453.608 144.18C453.674 132.511 453.674 132.511 449 122C445.819 118.916 442.837 118.754 438.562 118.562C433.582 118.73 430.674 119.416 427 123C422.929 129.29 421.894 135.192 421.795 142.626C421.785 143.271 421.775 143.915 421.765 144.579C421.733 146.695 421.708 148.81 421.684 150.926C421.663 152.398 421.642 153.871 421.621 155.344C421.566 159.208 421.516 163.073 421.468 166.938C421.409 171.582 421.342 176.225 421.277 180.868C421.18 187.912 421.091 194.956 421 202C405.82 202 390.64 202 375 202C375 148.54 375 95.08 375 40Z" fill="#E6BEBE"/>
<path d="M947 93C960.09 102.772 968.613 116.703 971 133C972.382 152.195 968.864 169.715 956.187 184.875C942.655 199.029 924.084 204.814 904.918 205.403C885.575 205.639 867.392 201.082 853.176 187.238C852.458 186.5 851.74 185.761 851 185C850.354 184.375 849.708 183.75 849.043 183.105C836.001 169.609 835.336 152.161 835.625 134.516C835.92 127.09 837.212 121.483 841 115C841.519 114.046 842.039 113.092 842.574 112.109C849.925 99.5664 861.238 89.4555 875.312 85.125C876.869 84.728 878.433 84.3558 880 84C881.139 83.6545 882.279 83.3091 883.453 82.9531C904.07 77.8259 929.102 81.6755 947 93Z" fill="#E6BEBE"/>
<path d="M564.758 81.832C565.583 81.8287 566.408 81.8254 567.258 81.8219C568.997 81.8169 570.737 81.8145 572.477 81.8147C575.097 81.8125 577.716 81.7944 580.336 81.7754C596.404 81.7207 614.213 82.0678 627.035 93.0352C636.695 102.695 639.426 115.06 639.529 128.38C639.525 129.052 639.521 129.724 639.516 130.416C639.504 132.567 639.515 134.717 639.532 136.868C639.559 140.663 639.565 144.457 639.563 148.252C639.561 154.325 639.576 160.398 639.619 166.471C639.629 168.567 639.62 170.663 639.61 172.759C639.648 179.968 640.241 186.394 642.259 193.329C643.047 196.17 643.515 199.092 644 202C629.81 202 615.62 202 601 202C598.233 196.465 597.653 194.776 598 189C597.212 189.592 596.425 190.183 595.613 190.793C579.165 202.843 562.157 206.582 542 205C532.148 203.264 522 199.184 515.625 191.188C514.716 189.814 513.84 188.417 513 187C512.587 186.345 512.175 185.69 511.75 185.016C507.636 177.417 507.779 168.374 509.66 160.094C513.043 150.603 519.12 145.056 527.854 140.432C533.2 137.999 538.73 136.688 544.437 135.375C545.659 135.081 546.881 134.786 548.14 134.483C556.222 132.563 564.337 130.884 572.502 129.356C577.867 128.323 582.856 126.866 587.906 124.734C590 124 590 124 594 124C593.771 122.393 593.516 120.789 593.25 119.188C593.111 118.294 592.972 117.401 592.828 116.48C591.813 113.441 590.729 112.602 588 111C581.251 108.75 572.675 108.932 566 111.437C561.676 113.623 559.877 116.863 557.875 121.172C556 123 556 123 552.41 123.391C544.727 123.02 537.068 121.942 529.437 121C527.841 120.807 526.244 120.614 524.646 120.422C520.764 119.953 516.882 119.479 513 119C514.359 107.793 517.359 99.4676 526.41 92.0156C537.8 84.1654 551.161 81.8515 564.758 81.832Z" fill="#E6BEBE"/>
<path d="M1422.44 81.625C1423.64 81.6315 1423.64 81.6315 1424.87 81.6381C1458.52 81.85 1458.52 81.85 1469 90C1469.7 90.5156 1470.41 91.0312 1471.13 91.5625C1479.42 98.1606 1483.05 106.756 1485 117C1485.34 121.457 1485.4 125.89 1485.38 130.359C1485.37 132.548 1485.38 134.736 1485.4 136.925C1485.44 143.14 1485.44 149.356 1485.44 155.571C1485.44 159.396 1485.46 163.221 1485.49 167.047C1485.5 169.179 1485.48 171.31 1485.47 173.442C1485.5 182.271 1487.04 189.697 1490 198C1490.33 199.32 1490.66 200.64 1491 202C1476.81 202 1462.62 202 1448 202C1443.5 194.125 1443.5 194.125 1444 189C1443.2 189.592 1442.4 190.183 1441.58 190.793C1424.86 202.926 1406.56 207.839 1385.9 204.679C1373.42 201.999 1364.69 195.413 1357.61 184.945C1353.58 177.426 1353.81 168.249 1355.66 160.094C1359.04 150.603 1365.12 145.056 1373.85 140.432C1379.2 137.999 1384.73 136.688 1390.44 135.375C1391.66 135.081 1392.88 134.786 1394.14 134.483C1402.22 132.563 1410.34 130.884 1418.5 129.356C1423.87 128.323 1428.86 126.866 1433.91 124.734C1436 124 1436 124 1440 124C1439.77 122.393 1439.52 120.789 1439.25 119.187C1439.11 118.294 1438.97 117.401 1438.83 116.48C1437.81 113.441 1436.73 112.602 1434 111C1427.15 108.718 1418.58 108.931 1411.88 111.625C1406.97 114.187 1404.73 117.813 1403 123C1393.66 123.299 1384.62 122.147 1375.38 121C1373.78 120.807 1372.19 120.614 1370.6 120.422C1366.73 119.954 1362.87 119.479 1359 119C1360.4 107.159 1364.63 100.022 1373.31 91.8125C1380.01 87.2961 1386.19 84.6852 1394.21 83.3711C1395 83.2424 1395.78 83.1137 1396.59 82.9812C1405.21 81.6734 1413.74 81.5358 1422.44 81.625Z" fill="#E6BEBE"/>
<path d="M344 93C350.91 98.4814 356.43 104.897 360 113C360.366 113.779 360.732 114.557 361.109 115.359C366.839 128.397 366 140.521 366 155C336.63 155 307.26 155 277 155C280.463 166.908 280.463 166.908 289 175C295.57 177.18 304.217 177.286 310.5 174.312C313.025 172.918 314.197 171.744 315.997 169.406C320.316 165.945 323.501 166.615 328.824 167.133C329.767 167.204 330.709 167.275 331.681 167.349C334.686 167.583 337.686 167.854 340.688 168.125C342.719 168.286 344.751 168.445 346.783 168.602C350.492 168.898 354.2 169.198 357.905 169.532C358.649 169.598 359.394 169.664 360.161 169.732C362 170 362 170 364 171C361.9 176.992 358.067 181.218 354 186C353.499 186.634 352.997 187.268 352.481 187.922C344.816 196.739 331.218 201.902 320 204C319.033 204.182 318.066 204.364 317.07 204.551C311.068 205.368 304.983 205.225 298.938 205.25C297.703 205.271 296.469 205.291 295.197 205.312C276.984 205.389 260.041 200.93 246.75 188.062C232.825 173.395 229.346 156.232 229.688 136.625C229.957 129.862 231.196 124.21 234 118C234.424 117.053 234.848 116.105 235.285 115.129C241.553 102.542 252.675 91.0403 266 86C266.98 85.6275 267.959 85.2549 268.969 84.8711C291.87 77.7271 324.085 78.8397 344 93Z" fill="#E6BEBE"/>
<path d="M1583.94 81.5625C1584.9 81.5708 1585.87 81.5791 1586.87 81.5876C1598.22 81.8571 1606.81 84.9095 1615 93C1622.72 102.24 1625.17 112.639 1625.11 124.462C1625.11 125.302 1625.11 126.141 1625.11 127.006C1625.11 129.771 1625.11 132.536 1625.1 135.301C1625.1 137.222 1625.09 139.143 1625.09 141.064C1625.09 146.112 1625.08 151.161 1625.07 156.21C1625.06 162.271 1625.05 168.333 1625.05 174.394C1625.04 183.596 1625.02 192.798 1625 202C1609.82 202 1594.64 202 1579 202C1578.97 196.895 1578.95 191.791 1578.92 186.531C1578.9 183.286 1578.87 180.042 1578.84 176.797C1578.79 171.653 1578.75 166.509 1578.73 161.365C1578.71 157.215 1578.68 153.066 1578.63 148.916C1578.62 147.337 1578.61 145.759 1578.61 144.18C1578.67 132.511 1578.67 132.511 1574 122C1570.82 118.916 1567.84 118.754 1563.56 118.562C1557.6 118.731 1554.51 120.58 1550.25 124.687C1545.9 132.728 1546.66 142.441 1546.59 151.316C1546.57 152.783 1546.55 154.25 1546.53 155.717C1546.48 159.549 1546.44 163.381 1546.4 167.213C1546.35 171.826 1546.29 176.44 1546.23 181.053C1546.14 188.035 1546.07 195.017 1546 202C1530.82 202 1515.64 202 1500 202C1500 163.06 1500 124.12 1500 84C1514.19 84 1528.38 84 1543 84C1543.5 91.92 1543.5 91.92 1544 100C1545.09 98.8244 1546.19 97.6487 1547.31 96.4375C1557.84 85.9701 1569.21 81.3991 1583.94 81.5625Z" fill="#E6BEBE"/>
<path d="M637 84C652.84 84 668.68 84 685 84C687.475 92.415 687.475 92.415 690 101C691.469 105.774 692.946 110.545 694.438 115.312C699.87 132.766 699.87 132.766 702.5 141.438C702.743 142.229 702.986 143.02 703.236 143.835C704.453 147.874 705.416 151.809 706 156C706.66 156 707.32 156 708 156C708.098 154.711 708.196 153.422 708.297 152.094C708.877 146.904 710.417 142.366 712.25 137.5C714.497 131.314 716.638 125.144 718.438 118.812C720.574 111.332 722.888 103.913 725.25 96.5C725.604 95.3821 725.958 94.2643 726.322 93.1125C726.654 92.0751 726.986 91.0376 727.328 89.9688C727.626 89.0348 727.924 88.1009 728.231 87.1387C729 85 729 85 730 84C731.443 83.907 732.89 83.8825 734.336 83.8865C735.257 83.8866 736.178 83.8866 737.127 83.8867C738.128 83.8919 739.129 83.897 740.16 83.9023C741.18 83.9038 742.199 83.9052 743.25 83.9066C746.521 83.9122 749.792 83.9248 753.062 83.9375C755.274 83.9425 757.486 83.9471 759.697 83.9512C765.132 83.9622 770.566 83.979 776 84C775.185 87.4464 774.001 90.5214 772.594 93.7773C772.101 94.9209 771.609 96.0645 771.102 97.2427C770.568 98.4743 770.034 99.7059 769.5 100.938C768.955 102.2 768.411 103.463 767.867 104.726C766.77 107.273 765.671 109.82 764.57 112.366C762.374 117.449 760.185 122.536 758 127.625C757.651 128.433 757.303 129.241 756.943 130.074C755.289 133.922 753.679 137.782 752.138 141.678C750.121 146.734 748.002 151.742 745.848 156.742C745.275 158.077 745.275 158.077 744.69 159.438C743.482 162.251 742.272 165.063 741.062 167.875C739.469 171.58 737.877 175.286 736.285 178.992C735.907 179.873 735.528 180.753 735.138 181.66C732.663 187.426 730.236 193.208 727.873 199.02C727 201 727 201 726 202C722.97 202.089 719.963 202.115 716.934 202.098C716.025 202.096 715.116 202.095 714.18 202.093C711.266 202.088 708.352 202.075 705.438 202.062C703.467 202.057 701.496 202.053 699.525 202.049C694.684 202.038 689.842 202.021 685 202C684.715 201.31 684.43 200.62 684.136 199.909C676.435 181.268 668.694 162.644 660.93 144.029C658.591 138.42 656.256 132.81 653.922 127.199C652.917 124.785 651.912 122.37 650.907 119.955C650.273 118.431 649.639 116.907 649.005 115.382C648.117 113.247 647.229 111.112 646.34 108.977C646.061 108.304 645.781 107.632 645.494 106.94C644.102 103.6 642.689 100.273 641.235 96.96C640.954 96.3174 640.673 95.6748 640.384 95.0128C639.617 93.2635 638.843 91.5171 638.069 89.771C637 87 637 87 637 84Z" fill="#E6BEBE"/>
<path d="M779 84C793.85 84 808.7 84 824 84C824 122.94 824 161.88 824 202C809.15 202 794.3 202 779 202C779 163.06 779 124.12 779 84Z" fill="#E6BEBE"/>
<path d="M912.312 115C919.436 120.301 923.66 126.146 925 135C926.029 146.578 925.214 158.399 917.562 167.688C914.238 171.29 911.001 172.766 906.133 173.336C899.454 173.423 895.334 173.137 890 169C882.299 160.949 881.499 154.395 881.562 143.625C881.543 142.431 881.523 141.238 881.502 140.008C881.507 131.708 882.443 125.98 888.035 119.723C888.704 119.175 889.373 118.627 890.062 118.063C890.734 117.497 891.406 116.931 892.098 116.348C897.634 112.425 906.092 113.122 912.312 115Z" fill="#FCFCFD"/>
<path d="M1293.38 116.094C1299.21 119.71 1302.76 123.399 1304.58 130.168C1306.16 140.882 1306.28 153.559 1301.31 163.312C1298.01 167.156 1294.8 169.559 1289.79 170.348C1284.59 170.552 1280.57 169.638 1276 167C1270.12 161.533 1267.45 154.457 1266.65 146.527C1266.42 136.799 1267.59 127.687 1274 120C1279.93 115.519 1286.23 112.812 1293.38 116.094Z" fill="#FBFBFB"/>
<path d="M125 135C130.239 134.938 135.477 134.876 140.875 134.812C142.507 134.785 144.139 134.758 145.82 134.73C164.126 134.625 164.126 134.625 169.668 139.453C173.182 143.509 174.365 146.477 174.277 151.84C173.624 156.927 171.064 160.125 167.188 163.312C161.289 166.435 155.943 167.249 149.316 167.195C147.394 167.188 147.394 167.188 145.432 167.18C143.825 167.162 142.218 167.144 140.562 167.125C135.427 167.084 130.291 167.042 125 167C125 156.44 125 145.88 125 135Z" fill="#F8F8F9"/>
<path d="M779 40C793.85 40 808.7 40 824 40C824 50.23 824 60.46 824 71C809.15 71 794.3 71 779 71C779 60.77 779 50.54 779 40Z" fill="#E6BEBE"/>
<path d="M126 73C130.084 72.9381 134.168 72.8762 138.375 72.8125C139.641 72.7852 140.908 72.7579 142.212 72.7297C150.006 72.6731 159.159 72.7132 165.125 78.5C167.755 83.4101 167.869 87.5431 167 93C164.674 98.0102 162.108 100.019 157 102C153.22 102.932 149.712 103.117 145.824 103.098C144.259 103.094 144.259 103.094 142.663 103.09C141.351 103.081 140.039 103.072 138.688 103.062C134.501 103.042 130.314 103.021 126 103C126 93.1 126 83.2 126 73Z" fill="#FDFDFD"/>
<path d="M594 147C594.816 162.935 594.816 162.935 590 170C584.976 175.514 578.09 178.202 570.758 179.352C565.927 179.558 562.163 178.367 558 176C555.535 173.137 555.044 171.306 554.5 167.562C555.126 163.105 556.535 160.729 560 158C567.001 153.826 574.683 151.835 582.52 149.895C585.998 149.045 585.998 149.045 589.324 147.887C592 147 592 147 594 147Z" fill="#FBFBFB"/>
<path d="M1440 147C1440.82 162.935 1440.82 162.935 1436 170C1430.98 175.514 1424.09 178.202 1416.76 179.352C1411.93 179.558 1408.16 178.367 1404 176C1401.53 173.137 1401.04 171.306 1400.5 167.562C1401.12 163.112 1402.53 160.715 1406 158C1411.6 154.79 1417.27 152.715 1423.59 151.535C1427.67 150.629 1431.56 149.181 1435.5 147.805C1438 147 1438 147 1440 147Z" fill="#FBFBFC"/>
<path d="M308.438 110.688C314.652 114.333 317.835 120.275 320 127C320 128.65 320 130.3 320 132C305.81 132 291.62 132 277 132C277.959 124.326 279.005 118.688 284.781 113.355C291.754 108.229 300.446 106.962 308.438 110.688Z" fill="#FAFAFB"/>
</g>
<defs>
<clipPath id="clip0_35_94">
<rect width="1672" height="274" fill="white"/>
</clipPath>
</defs>
</svg>
